<svg version="1.1" xmlns:xlink="http://www.w3.org/1999/xlink" xmlns="http://www.w3.org/2000/svg" viewBox="0 0 48 48"><path class="st0" d="M24 13.8c-2.5 0-4.8 1-6.5 2.7-.6.6-.6 1.5 0 2.1.3.3.7.4 1.1.4s.8-.1 1.1-.4c1.2-1.2 2.7-1.8 4.4-1.8 1.6 0 3.2.6 4.4 1.8.6.6 1.5.6 2.1 0s.6-1.5 0-2.1c-1.8-1.8-4.1-2.7-6.6-2.7z"/><path class="st0" d="M34.5 12.4C31.7 9.6 28 8.1 24 8.1s-7.7 1.6-10.5 4.4c-.6.6-.6 1.5 0 2.1.3.3.7.4 1.1.4.4 0 .8-.1 1.1-.4 2.2-2.2 5.2-3.5 8.4-3.5s6.1 1.2 8.4 3.5l.1.1c.3.3.6.4 1 .4s.8-.2 1.1-.5c.5-.7.4-1.6-.2-2.2.1 0 0 0 0 0z"/><path class="st0" d="M38.6 8.3c-3.9-3.9-9.1-6-14.6-6S13.3 4.5 9.4 8.4c-.6.6-.6 1.5 0 2.1.3.3.7.5 1.1.5.4 0 .7-.1 1-.4l.1-.1c3.3-3.3 7.8-5.2 12.5-5.2s9.1 1.8 12.5 5.2c.6.6 1.5.6 2.1 0 .5-.6.5-1.6-.1-2.2zM46.7 26.2h-4.4c-.4 0-.6-.3-.6-.6 0-.4.3-.6.6-.6h4.4c.4 0 .6.3.6.6s-.2.6-.6.6zm-19 13.1c-1.3-.9-6.3-4.1-7.2-4.7-.3-.2-.6-.3-.9-.3-.9 0-1.7.8-2 1.9-.1.6-.1 1.2.2 1.8.1.3.4.6.7.8 2.3 1.5 5.6 3.6 7.5 4.7.2.1.5.3.8.4 1.1.2 1.9-.6 2.3-1.9.2-1.1-.2-1.9-1.4-2.7zm-10 .3L14.1 41l4.2 2.7v2.6c2.5-.7 4.4-1.7 5.3-3-1.9-1.1-4.1-2.5-5.9-3.7z"/><path class="st0" d="m16.6 38.3-3.7 1.3s-2.4.9-3.9-.3c-1.2-.9-1-2.8-1-2.9v-1.6l7.7-6.7h1.5c1.3.6 2.4 1.4 3.2 2.1.3.2.6 1.1.5 3.4.1.1.2.1.3.2.2.2.6.4 1 .7.1-3.4-.5-4.4-1.2-5.1-.9-.8-2.1-1.7-3.6-2.3h-.2l-1.8-.1c-.1 0-.3 0-.3.1l-8 7c-.1.1-.2.2-.2.4v1.8c0 .1-.2 2.4 1.4 3.7.8.7 1.8.8 2.6.8 1.2 0 2.2-.4 2.3-.4l3.8-1.5c-.2-.1-.3-.4-.4-.6z"/><path class="st0" d="M41.7 23.9c-1.1.1-9.8.9-9.8.9l-14.1 2.8h-.5c1.4.6 2.6 1.5 3.5 2.2.6.5.7 2.2.7 4.2.6.4 1.6 1 2.7 1.7l6.3-2.4s1.7 1.5 3.4 1c1.7-.6 6.5-2.2 7.3-3 .9-.9 2.4-4.2 2.5-4.9.1-.2-.2-2.6-2-2.5zm-3 7.4c-1.8.5-3.9.9-3.9.9l-.6-1 1.7-3.2 4.8-.5c-.1.1-.2 3.3-2 3.8zM17.4 44.2l-.4-.3c-1.4.3-3 .5-4.5.5-5.7 0-10-2-10-3.9 0-1.1 1.4-2.2 3.6-3-.1-.5-.1-1-.1-1.3v-.5c-3.3 1-5.3 2.7-5.3 4.7 0 3.2 5 5.6 11.6 5.6 1.6 0 3.3-.2 5-.5l.1-1.3z"/><path class="st0" d="M9 33.9c-1.4 1.2 2.5 3 3.5 2.4-.3.6.1 3.4.7 3.2.7-.2-1.6.9-2.6.7-1.7.1-3.1-2.2-3.2-3.2-.3-2.6 3-4.3 1.6-3.1z"/></svg>
